<svg width="100" height="28" viewBox="0 0 100 28" fill="none" xmlns="http://www.w3.org/2000/svg">
<path d="M8.54768 26.3659V6.69093H0.0742188V1.11084H22.5599V6.69093H14.1278V26.3659H8.54768Z" fill="url(#paint0_linear)"/>
<path d="M39.4249 26.3246L37.6475 21.6125H27.2727L25.5367 26.3246H19.2539L29.3394 1.11084H35.5808L45.7076 26.3246H39.4249ZM29.0087 17.0244H35.9528L32.4808 7.76561L29.0087 17.0244Z" fill="url(#paint1_linear)"/>
<path d="M48.3927 26.3246V20.7445H62.1983C63.273 20.7445 63.893 20.1245 63.893 19.0911C63.893 18.0164 63.2316 17.6444 62.2809 17.3964L52.8981 15.1644C51.6581 14.8751 50.5008 14.2964 49.6327 13.4697C48.1861 12.1057 47.3594 10.2043 47.3594 8.22028C47.3594 6.15358 48.2687 4.16955 49.7981 2.84687C51.0794 1.73085 52.7328 1.11084 54.5515 1.11084H68.9357V6.69093H55.1302C54.1381 6.69093 53.4355 7.35227 53.4355 8.34428C53.4355 9.4603 54.2208 9.83231 55.0475 10.039L64.4716 12.271C65.7117 12.5603 66.869 13.139 67.737 13.9657C69.1837 15.3297 70.0104 17.2311 70.0104 19.2151C70.0104 21.2818 69.101 23.2658 67.5717 24.5885C66.2903 25.7045 64.637 26.3246 62.8183 26.3246H48.3927Z" fill="url(#paint2_linear)"/>
<path d="M93.529 25.0025L93.2809 25.1679C91.1729 26.4906 88.6929 27.1932 86.2128 27.1932C78.8141 27.1932 72.7793 21.1585 72.7793 13.7597C72.7793 6.36093 78.8141 0.326172 86.2128 0.326172C93.6116 0.326172 99.6464 6.36093 99.6464 13.7597C99.6464 16.2811 98.9437 18.7198 97.621 20.8278L97.4557 21.0758L99.853 23.4732L95.9263 27.3999L93.529 25.0025ZM86.2128 5.86492C81.8728 5.86492 78.3594 9.37831 78.3594 13.7184C78.3594 18.0584 81.8728 21.5718 86.2128 21.5718C87.1222 21.5718 88.0315 21.4065 88.9409 21.0758L89.4369 20.8692L86.7088 18.1411L90.6356 14.2144L93.3636 16.9424L93.5703 16.4464C93.901 15.5784 94.0663 14.6277 94.0663 13.7184C94.0663 9.37831 90.5529 5.86492 86.2128 5.86492Z" fill="url(#paint3_linear)"/>
<defs>
<linearGradient id="paint0_linear" x1="0.895235" y1="13.7409" x2="119.959" y2="13.7409" gradientUnits="userSpaceOnUse">
<stop stop-color="#CB5F4C"/>
<stop offset="1" stop-color="#F2C353"/>
</linearGradient>
<linearGradient id="paint1_linear" x1="0.895962" y1="13.7183" x2="119.959" y2="13.7183" gradientUnits="userSpaceOnUse">
<stop stop-color="#CB5F4C"/>
<stop offset="1" stop-color="#F2C353"/>
</linearGradient>
<linearGradient id="paint2_linear" x1="0.894337" y1="13.7183" x2="119.958" y2="13.7183" gradientUnits="userSpaceOnUse">
<stop stop-color="#CB5F4C"/>
<stop offset="1" stop-color="#F2C353"/>
</linearGradient>
<linearGradient id="paint3_linear" x1="0.893864" y1="13.8426" x2="119.957" y2="13.8426" gradientUnits="userSpaceOnUse">
<stop stop-color="#CB5F4C"/>
<stop offset="1" stop-color="#F2C353"/>
</linearGradient>
</defs>
</svg>
