<svg width="27" height="23" viewBox="0 0 27 23" fill="none" xmlns="http://www.w3.org/2000/svg">
<path d="M1.35959 11.2628L7.30335 13.4791L9.62039 20.934C9.72114 21.4377 10.3256 21.5384 10.7286 21.2362L14.053 18.5162C14.3552 18.214 14.859 18.214 15.2619 18.5162L21.2057 22.8481C21.6086 23.1503 22.2131 22.9488 22.3138 22.4451L26.7464 1.2894C26.8472 0.785697 26.3435 0.281995 25.8398 0.483478L1.35959 9.95317C0.755138 10.1547 0.755138 11.0613 1.35959 11.2628ZM9.31818 12.371L21.0042 5.21832C21.2056 5.11758 21.4071 5.41981 21.2057 5.52055L11.6352 14.4865C11.333 14.7888 11.0308 15.1917 11.0308 15.6954L10.7286 18.1132C10.7286 18.4155 10.2248 18.5162 10.1241 18.1132L8.91519 13.6806C8.61297 13.1769 8.81448 12.5724 9.31818 12.371Z" fill="white"/>
</svg>
