<svg width="74" height="17" viewBox="0 0 74 17" fill="none" xmlns="http://www.w3.org/2000/svg">
<path d="M9.44294 0.519362V2.41832H6.04207V12.6037H4.0568V2.41832H0.638672V0.519362H9.44294Z" fill="white"/>
<path d="M10.7065 9.08194C10.8446 9.73795 11.1611 10.2443 11.656 10.6011C12.1509 10.9464 12.7551 11.119 13.4687 11.119C14.4584 11.119 15.2007 10.7622 15.6956 10.0487L17.232 10.9464C16.3804 12.2008 15.1202 12.8281 13.4514 12.8281C12.0473 12.8281 10.9137 12.4022 10.0505 11.5506C9.18736 10.6874 8.75578 9.59984 8.75578 8.28783C8.75578 6.99884 9.18161 5.92277 10.0333 5.0596C10.8849 4.18493 11.9783 3.74759 13.3133 3.74759C14.5793 3.74759 15.6151 4.19068 16.4207 5.07687C17.2378 5.96305 17.6464 7.03912 17.6464 8.3051C17.6464 8.50075 17.6233 8.7597 17.5773 9.08194H10.7065ZM10.6893 7.56278H15.7647C15.6381 6.86074 15.3446 6.33133 14.8842 5.97456C14.4354 5.61778 13.906 5.43939 13.296 5.43939C12.6055 5.43939 12.03 5.62929 11.5697 6.00908C11.1093 6.38887 10.8159 6.90677 10.6893 7.56278Z" fill="white"/>
<path d="M19.2869 12.6037V0.00146484H21.1513V12.6037H19.2869Z" fill="white"/>
<path d="M24.7835 9.08194C24.9216 9.73795 25.2381 10.2443 25.733 10.6011C26.2279 10.9464 26.8321 11.119 27.5456 11.119C28.5354 11.119 29.2777 10.7622 29.7726 10.0487L31.309 10.9464C30.4574 12.2008 29.1971 12.8281 27.5284 12.8281C26.1243 12.8281 24.9907 12.4022 24.1275 11.5506C23.2643 10.6874 22.8328 9.59984 22.8328 8.28783C22.8328 6.99884 23.2586 5.92277 24.1102 5.0596C24.9619 4.18493 26.0552 3.74759 27.3903 3.74759C28.6562 3.74759 29.692 4.19068 30.4976 5.07687C31.3148 5.96305 31.7233 7.03912 31.7233 8.3051C31.7233 8.50075 31.7003 8.7597 31.6543 9.08194H24.7835ZM24.7662 7.56278H29.8416C29.715 6.86074 29.4216 6.33133 28.9612 5.97456C28.5124 5.61778 27.983 5.43939 27.373 5.43939C26.6825 5.43939 26.107 5.62929 25.6467 6.00908C25.1863 6.38887 24.8928 6.90677 24.7662 7.56278Z" fill="white"/>
<path d="M40.1841 3.97202H42.014V12.2066C42.014 13.5186 41.5824 14.5256 40.7193 15.2277C39.8561 15.9297 38.8088 16.2807 37.5773 16.2807C35.5863 16.2807 34.2225 15.5844 33.4859 14.1919L35.0914 13.2597C35.5403 14.1458 36.3804 14.5889 37.6119 14.5889C38.4175 14.5889 39.0447 14.376 39.4936 13.9502C39.9539 13.5359 40.1841 12.9547 40.1841 12.2066V11.1535C39.4821 12.1548 38.4808 12.6554 37.1803 12.6554C35.9604 12.6554 34.9303 12.2239 34.0902 11.3607C33.25 10.486 32.8299 9.43296 32.8299 8.20152C32.8299 6.97007 33.25 5.92277 34.0902 5.0596C34.9303 4.18493 35.9604 3.74759 37.1803 3.74759C38.4808 3.74759 39.4821 4.24823 40.1841 5.2495V3.97202ZM35.4712 10.135C36.0006 10.6529 36.6566 10.9118 37.4392 10.9118C38.2218 10.9118 38.8721 10.6529 39.39 10.135C39.9194 9.61711 40.1841 8.97261 40.1841 8.20152C40.1841 7.43042 39.9194 6.78593 39.39 6.26803C38.8721 5.75013 38.2218 5.49118 37.4392 5.49118C36.6566 5.49118 36.0006 5.75013 35.4712 6.26803C34.9533 6.78593 34.6944 7.43042 34.6944 8.20152C34.6944 8.97261 34.9533 9.61711 35.4712 10.135Z" fill="white"/>
<path d="M46.0516 5.42213C46.5234 4.35181 47.4096 3.81665 48.7101 3.81665V5.83645C47.9966 5.79041 47.3751 5.96305 46.8457 6.35435C46.3163 6.73414 46.0516 7.36713 46.0516 8.25331V12.6037H44.1871V3.97202H46.0516V5.42213Z" fill="white"/>
<path d="M56.5193 3.97202H58.3838V12.6037H56.5193V11.3607C55.8173 12.3389 54.8103 12.8281 53.4983 12.8281C52.3128 12.8281 51.3001 12.3907 50.4599 11.5161C49.6198 10.6299 49.1997 9.55381 49.1997 8.28783C49.1997 7.01035 49.6198 5.93427 50.4599 5.0596C51.3001 4.18493 52.3128 3.74759 53.4983 3.74759C54.8103 3.74759 55.8173 4.23097 56.5193 5.19771V3.97202ZM51.841 10.2731C52.3589 10.791 53.0091 11.05 53.7917 11.05C54.5743 11.05 55.2246 10.791 55.7425 10.2731C56.2604 9.7437 56.5193 9.08194 56.5193 8.28783C56.5193 7.49372 56.2604 6.83772 55.7425 6.31982C55.2246 5.79041 54.5743 5.52571 53.7917 5.52571C53.0091 5.52571 52.3589 5.79041 51.841 6.31982C51.3231 6.83772 51.0641 7.49372 51.0641 8.28783C51.0641 9.08194 51.3231 9.7437 51.841 10.2731Z" fill="white"/>
<path d="M69.9827 3.74759C70.9609 3.74759 71.7493 4.06409 72.3477 4.69707C72.9462 5.33006 73.2454 6.18171 73.2454 7.25204V12.6037H71.381V7.37288C71.381 6.77442 71.2314 6.31407 70.9321 5.99182C70.6329 5.65806 70.2243 5.49118 69.7064 5.49118C69.131 5.49118 68.6706 5.68108 68.3254 6.06087C67.9916 6.44066 67.8247 7.01035 67.8247 7.76994V12.6037H65.9603V7.37288C65.9603 6.77442 65.8164 6.31407 65.5287 5.99182C65.2525 5.65806 64.8555 5.49118 64.3376 5.49118C63.7736 5.49118 63.3133 5.68683 62.9565 6.07814C62.5997 6.45793 62.4213 7.02186 62.4213 7.76994V12.6037H60.5569V3.97202H62.4213V5.00781C62.9738 4.16767 63.7966 3.74759 64.89 3.74759C65.9948 3.74759 66.812 4.20219 67.3414 5.11139C67.9168 4.20219 68.7972 3.74759 69.9827 3.74759Z" fill="white"/>
</svg>
