<svg width="24" height="27" viewBox="0 0 24 27" fill="none" xmlns="http://www.w3.org/2000/svg">
<path d="M18.3039 1.48069C14.1262 0.682869 9.78775 0.682869 5.61002 1.48069C3.76217 1.8796 1.43229 4.1135 1.03058 5.8687C0.307514 9.29933 0.307514 12.8097 1.03058 16.2404C1.51263 17.9956 3.84252 20.2295 5.61002 20.6284C5.69036 20.6284 5.7707 20.7082 5.7707 20.7879V25.8142C5.7707 26.0536 6.09207 26.2131 6.25275 25.9738L8.66298 23.5005C8.66298 23.5005 10.5912 21.506 10.9125 21.1869C10.9125 21.1869 10.9929 21.1071 11.0732 21.1071C13.4834 21.1869 15.974 20.9475 18.3842 20.5486C20.2321 20.1497 22.562 17.9158 22.9637 16.1606C23.6867 12.73 23.6867 9.21955 22.9637 5.78892C22.4816 4.1135 20.1517 1.8796 18.3039 1.48069ZM18.3842 16.4797C17.9825 17.2775 17.5005 17.9158 16.6971 18.3147C16.4561 18.3945 16.215 18.4743 15.974 18.554C15.6526 18.4743 15.4116 18.3945 15.1706 18.3147C12.5997 17.2775 10.1895 15.8415 8.26127 13.7671C7.21684 12.5704 6.33309 11.2141 5.61002 9.77802C5.28865 9.05998 4.96729 8.42173 4.72627 7.70369C4.48524 7.06543 4.88695 6.42718 5.28865 5.94848C5.69036 5.46979 6.17241 5.15066 6.73479 4.91132C7.1365 4.67197 7.5382 4.83154 7.85957 5.15066C8.50229 5.94848 9.14502 6.7463 9.62707 7.62391C9.94843 8.18238 9.86809 8.82064 9.3057 9.21955C9.14502 9.29933 9.06468 9.37911 8.904 9.53868C8.82366 9.61846 8.66297 9.69824 8.58263 9.8578C8.42195 10.0971 8.42195 10.3365 8.50229 10.5758C9.14502 12.4108 10.3501 13.8469 12.198 14.6447C12.5193 14.8043 12.7604 14.8841 13.1621 14.8841C13.7245 14.8043 13.9655 14.166 14.3672 13.8469C14.7689 13.5278 15.2509 13.5278 15.733 13.7671C16.1347 14.0065 16.5364 14.3256 17.0184 14.6447C17.4201 14.9639 17.8218 15.2032 18.2235 15.5223C18.4646 15.6819 18.5449 16.0808 18.3842 16.4797ZM15.0099 10.4961C14.8492 10.4961 14.9296 10.4961 15.0099 10.4961C14.6885 10.4961 14.6082 10.3365 14.5279 10.0972C14.5279 9.93759 14.5279 9.69824 14.4475 9.53868C14.3672 9.21955 14.2065 8.90042 13.8851 8.66107C13.7245 8.58129 13.5638 8.50151 13.4031 8.42173C13.1621 8.34194 13.0014 8.34195 12.7604 8.34195C12.5193 8.26216 12.439 8.1026 12.439 7.86325C12.439 7.70369 12.68 7.54412 12.8407 7.54412C14.1262 7.62391 15.0903 8.34194 15.2509 9.8578C15.2509 9.93758 15.2509 10.0971 15.2509 10.1769C15.2509 10.3365 15.1706 10.4961 15.0099 10.4961ZM14.2065 6.98565C13.8048 6.82609 13.4031 6.66652 12.921 6.58674C12.7604 6.58674 12.5193 6.50696 12.3587 6.50696C12.1176 6.50696 11.957 6.34739 12.0373 6.10805C12.0373 5.8687 12.198 5.70914 12.439 5.78892C13.2424 5.8687 13.9655 6.02827 14.6885 6.34739C16.1347 7.06543 16.9381 8.26216 17.1791 9.8578C17.1791 9.93758 17.1791 10.0174 17.1791 10.0972C17.1791 10.2567 17.1791 10.4163 17.1791 10.6556C17.1791 10.7354 17.1791 10.8152 17.1791 10.895C17.0988 11.2141 16.5364 11.2939 16.456 10.895C16.456 10.8152 16.3757 10.6556 16.3757 10.5758C16.3757 9.8578 16.215 9.13976 15.8937 8.50151C15.4116 7.78347 14.8492 7.30478 14.2065 6.98565ZM18.5449 11.7726C18.3039 11.7726 18.1432 11.5332 18.1432 11.2939C18.1432 10.8152 18.0629 10.3365 17.9825 9.8578C17.6612 7.30478 15.5723 5.23044 13.0817 4.83153C12.68 4.75175 12.2783 4.75175 11.957 4.67197C11.7159 4.67197 11.3946 4.67197 11.3142 4.35284C11.2339 4.1135 11.4749 3.87415 11.7159 3.87415C11.7963 3.87415 11.8766 3.87415 11.8766 3.87415C15.1706 3.95393 12.0373 3.87415 11.8766 3.87415C15.2509 3.95393 18.0629 6.18783 18.6253 9.53868C18.7056 10.0971 18.7859 10.6556 18.7859 11.2939C18.9466 11.5332 18.7859 11.7726 18.5449 11.7726Z" fill="white"/>
</svg>
