<svg width="42" height="13" viewBox="0 0 42 13" fill="none" xmlns="http://www.w3.org/2000/svg">
<path d="M4.44497 12.3766L0.25 0.292294H2.42517L5.63614 9.97699L8.86437 0.292294H11.0223L6.82731 12.3766H4.44497Z" fill="white"/>
<path d="M13.6162 2.10494C13.386 2.33511 13.1098 2.4502 12.7876 2.4502C12.4653 2.4502 12.1834 2.33511 11.9417 2.10494C11.7115 1.86325 11.5964 1.58128 11.5964 1.25904C11.5964 0.936789 11.7115 0.660577 11.9417 0.4304C12.1719 0.188714 12.4538 0.0678711 12.7876 0.0678711C13.1213 0.0678711 13.4033 0.188714 13.6335 0.4304C13.8637 0.660577 13.9787 0.936789 13.9787 1.25904C13.9787 1.58128 13.8579 1.86325 13.6162 2.10494ZM11.8554 12.3766V3.74495H13.7198V12.3766H11.8554Z" fill="white"/>
<path d="M20.7701 3.52052C21.9555 3.52052 22.9683 3.95786 23.8084 4.83253C24.6486 5.70721 25.0686 6.78328 25.0686 8.06076C25.0686 9.32674 24.6486 10.4028 23.8084 11.289C22.9683 12.1637 21.9555 12.601 20.7701 12.601C19.4581 12.601 18.4511 12.1119 17.749 11.1336V12.3766H15.8846V0.292294H17.749V4.97064C18.4511 4.0039 19.4581 3.52052 20.7701 3.52052ZM18.5259 10.046C19.0438 10.5639 19.694 10.8229 20.4766 10.8229C21.2592 10.8229 21.9095 10.5639 22.4274 10.046C22.9453 9.51663 23.2042 8.85487 23.2042 8.06076C23.2042 7.26665 22.9453 6.61065 22.4274 6.09275C21.9095 5.56334 21.2592 5.29864 20.4766 5.29864C19.694 5.29864 19.0438 5.56334 18.5259 6.09275C18.008 6.61065 17.749 7.26665 17.749 8.06076C17.749 8.85487 18.008 9.51663 18.5259 10.046Z" fill="white"/>
<path d="M28.2258 8.85487C28.3639 9.51088 28.6804 10.0173 29.1753 10.374C29.6702 10.7193 30.2744 10.8919 30.9879 10.8919C31.9777 10.8919 32.72 10.5352 33.2149 9.82162L34.7513 10.7193C33.8997 11.9738 32.6394 12.601 30.9707 12.601C29.5666 12.601 28.433 12.1752 27.5698 11.3235C26.7066 10.4604 26.275 9.37277 26.275 8.06076C26.275 6.77177 26.7009 5.6957 27.5525 4.83253C28.4042 3.95786 29.4975 3.52052 30.8326 3.52052C32.0985 3.52052 33.1343 3.96362 33.9399 4.8498C34.7571 5.73598 35.1656 6.81205 35.1656 8.07803C35.1656 8.27368 35.1426 8.53263 35.0966 8.85487H28.2258ZM28.2085 7.33571H33.2839C33.1573 6.63367 32.8639 6.10426 32.4035 5.74749C31.9547 5.39071 31.4253 5.21233 30.8153 5.21233C30.1248 5.21233 29.5493 5.40222 29.089 5.78201C28.6286 6.1618 28.3351 6.6797 28.2085 7.33571Z" fill="white"/>
<path d="M38.6706 5.19506C39.1425 4.12474 40.0287 3.58958 41.3292 3.58958V5.60938C40.6156 5.56334 39.9941 5.73598 39.4647 6.12728C38.9353 6.50707 38.6706 7.14006 38.6706 8.02624V12.3766H36.8062V3.74495H38.6706V5.19506Z" fill="white"/>
</svg>
